<?xml version="1.0" encoding="UTF-8"?>
<svg
  xmlns="http://www.w3.org/2000/svg"
  viewBox="0 0 24 24"
  fill="none"
>
  <defs>
    <style>
      .stroke {
        stroke: #111111;
        stroke-width: 1;
        stroke-linecap: round;
        stroke-linejoin: round;
      }
      .arrow-orange-compliment {
        stroke: #0b5d9e;
        stroke-width: 1;
        stroke-linecap: round;
        stroke-linejoin: round;
      }
      .arrow-tiffany-compliment {
        stroke: #ff2d2d;
        stroke-width: 1;
        stroke-linecap: round;
        stroke-linejoin: round;
      }
      .label {
        fill: #111111;
        font-family: "Arial", "Helvetica", sans-serif;
        text-anchor: middle;
        dominant-baseline: middle;
      }
    </style>
  </defs>

  <rect width="24" height="24" rx="3.2" fill="#ffffff"/>

  <rect x="1.5" y="1.5" width="13" height="13" rx="2" fill="#F4A261"/>
  <rect x="1.5" y="1.5" width="13" height="13" rx="2" class="stroke"/>

  <rect x="9.5" y="9.5" width="13" height="13" rx="2" fill="#81D8D0"/>
  <rect x="9.5" y="9.5" width="13" height="13" rx="2" class="stroke"/>

  <path class="arrow-orange-compliment" d="M3 17.7v2.3a3 3 0 0 0 3 3h2.1"/>
  <path class="arrow-orange-compliment" d="M1.4 18.6 3 17l1.6 1.6"/>

  <path class="arrow-tiffany-compliment" d="M21 6.3V4a3 3 0 0 0-3-3h-2"/>
  <path class="arrow-tiffany-compliment" d="M19.4 5.4 21 7l1.6-1.6"/>

  <text x="7.9" y="8.4" class="label" font-size="5.4" font-weight="500">文</text>
  <text x="16.1" y="16.3" class="label" font-size="7.2" font-weight="400">3</text>
</svg>
